<svg width="40" height="40" viewBox="0 0 40 40" fill="none" xmlns="http://www.w3.org/2000/svg">
<path fill-rule="evenodd" clip-rule="evenodd" d="M20 40C31.0457 40 40 31.0457 40 20C40 8.95432 31.0457 0 20 0C8.95431 0 0 8.95432 0 20C0 31.0457 8.95431 40 20 40ZM23.9655 14.7705L20.8907 8.74536C20.5196 8.0181 19.4804 8.0181 19.1093 8.74536L16.0345 14.7705C15.8892 15.0552 15.6165 15.2533 15.3008 15.3035L8.62039 16.366C7.81405 16.4942 7.49294 17.4825 8.0699 18.0602L12.85 22.8464C13.0759 23.0726 13.18 23.3931 13.1302 23.7089L12.0763 30.3907C11.9491 31.1972 12.7898 31.808 13.5175 31.4378L19.5466 28.3707C19.8315 28.2257 20.1685 28.2257 20.4534 28.3707L26.4825 31.4378C27.2102 31.808 28.0509 31.1972 27.9237 30.3907L26.8698 23.7089C26.82 23.3931 26.9241 23.0726 27.15 22.8464L31.9301 18.0602C32.5071 17.4825 32.186 16.4942 31.3796 16.366L24.6992 15.3035C24.3835 15.2533 24.1108 15.0552 23.9655 14.7705Z" fill="white"/>
</svg>
