<svg   viewBox="0 0 40 40" fill="none" xmlns="http://www.w3.org/2000/svg">
<circle cx="20" cy="20" r="20" fill="#060D18"/>
<path d="M19.1093 8.74536C19.4804 8.01811 20.5196 8.01811 20.8907 8.74536L23.9655 14.7705C24.1108 15.0552 24.3835 15.2533 24.6992 15.3035L31.3796 16.366C32.186 16.4942 32.5071 17.4825 31.9301 18.0602L27.15 22.8464C26.9242 23.0726 26.82 23.3931 26.8698 23.7089L27.9237 30.3907C28.0509 31.1972 27.2102 31.808 26.4825 31.4378L20.4534 28.3707C20.1685 28.2257 19.8315 28.2257 19.5466 28.3707L13.5175 31.4378C12.7898 31.808 11.9491 31.1972 12.0763 30.3907L13.1302 23.7089C13.18 23.3931 13.0759 23.0726 12.85 22.8464L8.0699 18.0602C7.49293 17.4825 7.81405 16.4942 8.62039 16.366L15.3008 15.3035C15.6165 15.2533 15.8892 15.0552 16.0345 14.7705L19.1093 8.74536Z" fill="white"/>
</svg>
