<svg width="40" height="40" viewBox="0 0 40 40" fill="none" xmlns="http://www.w3.org/2000/svg">
<circle cx="20" cy="20" r="20" fill="white"/>
<rect x="8" y="9" width="24" height="22" rx="2" fill="#0E192B"/>
<rect x="10" y="11" width="20" height="18" rx="1" fill="white"/>
<path d="M15.5924 20.4076L12.1464 23.8536C12.0527 23.9473 12 24.0745 12 24.2071V26.5C12 26.7761 12.2239 27 12.5 27H27.5C27.7761 27 28 26.7761 28 26.5V20.685C28 20.5656 27.9573 20.4502 27.8796 20.3596L25.3796 17.4429C25.1801 17.2101 24.8199 17.2101 24.6204 17.4429L19.4056 23.5267C19.1975 23.7696 18.8179 23.7573 18.626 23.5014L16.3459 20.4612C16.1633 20.2178 15.8075 20.1925 15.5924 20.4076Z" fill="#0E192B"/>
<circle cx="14.5" cy="15.5" r="1.5" fill="#0E192B"/>
</svg>
