<svg   viewBox="0 0 40 40" fill="none" xmlns="http://www.w3.org/2000/svg">
<circle cx="20" cy="20" r="20" fill="white"/>
<circle cx="20" cy="11" r="2" fill="#0E192B"/>
<path d="M34 14C34 15.1046 33.1046 16 32 16C30.8954 16 30 15.1046 30 14C30 12.8954 30.8954 12 32 12C33.1046 12 34 12.8954 34 14Z" fill="#0E192B"/>
<circle cx="8" cy="14" r="2" fill="#0E192B"/>
<path fill-rule="evenodd" clip-rule="evenodd" d="M19.1362 14.4808C19.5221 13.8193 20.4779 13.8193 20.8638 14.4808L23.948 19.7679C24.2463 20.2793 24.9211 20.421 25.3999 20.0728L29.0584 17.4121C29.7774 16.8892 30.7701 17.4942 30.6349 18.3729L29.1305 28.1521C29.0554 28.6399 28.6357 29 28.1421 29H20H11.8579C11.3643 29 10.9446 28.6399 10.8695 28.1521L9.36506 18.3729C9.22988 17.4942 10.2226 16.8892 10.9416 17.4121L14.6001 20.0728C15.0789 20.421 15.7537 20.2793 16.052 19.7679L19.1362 14.4808Z" fill="#0E192B"/>
<path d="M20 19L21.2608 21.5977L24 22.0557L22.04 24.1192L22.4721 27L20 25.6777L17.5279 27L17.96 24.1192L16 22.0557L18.7392 21.5977L20 19Z" fill="white"/>
</svg>
