<svg width="18" height="18" viewBox="0 0 18 18" fill="none" xmlns="http://www.w3.org/2000/svg">
<circle cx="9" cy="9" r="9" fill="#060D18"/>
<circle cx="9" cy="4.95" r="0.9" fill="#C5D0F5"/>
<path d="M15.3 6.29999C15.3 6.79705 14.8971 7.19999 14.4 7.19999C13.9029 7.19999 13.5 6.79705 13.5 6.29999C13.5 5.80294 13.9029 5.39999 14.4 5.39999C14.8971 5.39999 15.3 5.80294 15.3 6.29999Z" fill="#C5D0F5"/>
<circle cx="3.6" cy="6.29999" r="0.9" fill="#C5D0F5"/>
<path fill-rule="evenodd" clip-rule="evenodd" d="M8.6113 6.51635C8.78494 6.21867 9.21505 6.21867 9.3887 6.51635L10.7766 8.89557C10.9108 9.1257 11.2145 9.18946 11.43 9.03276L13.0763 7.83544C13.3998 7.60014 13.8466 7.8724 13.7857 8.26779L13.1087 12.6684C13.0749 12.888 12.886 13.05 12.6639 13.05H9H5.33606C5.11396 13.05 4.92507 12.888 4.8913 12.6684L4.21428 8.26779C4.15345 7.8724 4.60019 7.60014 4.92372 7.83544L6.57004 9.03276C6.7855 9.18946 7.08918 9.1257 7.22342 8.89557L8.6113 6.51635Z" fill="#C5D0F5"/>
</svg>
