<svg   viewBox="0 0 40 40" fill="none" xmlns="http://www.w3.org/2000/svg">
<circle cx="20" cy="20" r="20" fill="#060D18"/>
<path d="M14 14L14 29" stroke="white" stroke-width="3" stroke-linecap="round"/>
<path d="M13.6 8.53333C13.8 8.26667 14.2 8.26667 14.4 8.53333L19.0396 14.7195C19.3337 15.1116 18.9465 15.6488 18.4815 15.4938L14.1581 14.0527C14.0555 14.0185 13.9445 14.0185 13.8419 14.0527L9.5185 15.4938C9.05347 15.6488 8.66627 15.1116 8.96038 14.7195L13.6 8.53333Z" fill="white"/>
<path d="M26 26L26 11" stroke="white" stroke-width="3" stroke-linecap="round"/>
<path d="M26.4 31.4667C26.2 31.7333 25.8 31.7333 25.6 31.4667L20.9604 25.2805C20.6663 24.8884 21.0535 24.3512 21.5185 24.5062L25.8419 25.9473C25.9445 25.9815 26.0555 25.9815 26.1581 25.9473L30.4815 24.5062C30.9465 24.3512 31.3337 24.8884 31.0396 25.2805L26.4 31.4667Z" fill="white"/>
</svg>
